<?xml version="1.0" encoding="utf-8"?>
<svg version="1.1" xmlns:xlink="http://www.w3.org/1999/xlink" width="12px" height="12px" viewBox="33 172  12 12" xmlns="http://www.w3.org/2000/svg">
  <path d="M 39 172  C 42.36 172  45 174.64  45 178  C 45 181.36  42.36 184  39 184  C 35.64 184  33 181.36  33 178  C 33 174.64  35.64 172  39 172  Z " fill-rule="nonzero" fill="#ffffff" stroke="none" />
  <path d="M 39 172.5  C 42.08 172.5  44.5 174.92  44.5 178  C 44.5 181.08  42.08 183.5  39 183.5  C 35.92 183.5  33.5 181.08  33.5 178  C 33.5 174.92  35.92 172.5  39 172.5  Z " stroke-width="1" stroke="#797979" fill="none" />
  <path d="M 39 181  C 37.32 181  36 179.68  36 178  C 36 176.32  37.32 175  39 175  C 40.68 175  42 176.32  42 178  C 42 179.68  40.68 181  39 181  " fill-rule="nonzero" fill="#797979" stroke="none" />
</svg>