<?xml version="1.0" encoding="utf-8"?>
<svg version="1.1" xmlns:xlink="http://www.w3.org/1999/xlink" width="12px" height="12px" viewBox="28 293  12 12" xmlns="http://www.w3.org/2000/svg">
  <path d="M 34 293  C 37.36 293  40 295.64  40 299  C 40 302.36  37.36 305  34 305  C 30.64 305  28 302.36  28 299  C 28 295.64  30.64 293  34 293  Z " fill-rule="nonzero" fill="#ffffff" stroke="none" />
  <path d="M 34 293.5  C 37.08 293.5  39.5 295.92  39.5 299  C 39.5 302.08  37.08 304.5  34 304.5  C 30.92 304.5  28.5 302.08  28.5 299  C 28.5 295.92  30.92 293.5  34 293.5  Z " stroke-width="1" stroke="#797979" fill="none" />
  <path d="M 34 302  C 32.32 302  31 300.68  31 299  C 31 297.32  32.32 296  34 296  C 35.68 296  37 297.32  37 299  C 37 300.68  35.68 302  34 302  " fill-rule="nonzero" fill="#797979" stroke="none" />
</svg>