<?xml version="1.0" encoding="utf-8"?>
<svg version="1.1" xmlns:xlink="http://www.w3.org/1999/xlink" width="12px" height="12px" viewBox="33 294  12 12" xmlns="http://www.w3.org/2000/svg">
  <path d="M 39 294  C 42.36 294  45 296.64  45 300  C 45 303.36  42.36 306  39 306  C 35.64 306  33 303.36  33 300  C 33 296.64  35.64 294  39 294  Z " fill-rule="nonzero" fill="#ffffff" stroke="none" />
  <path d="M 39 294.5  C 42.08 294.5  44.5 296.92  44.5 300  C 44.5 303.08  42.08 305.5  39 305.5  C 35.92 305.5  33.5 303.08  33.5 300  C 33.5 296.92  35.92 294.5  39 294.5  Z " stroke-width="1" stroke="#797979" fill="none" />
  <path d="M 39 303  C 37.32 303  36 301.68  36 300  C 36 298.32  37.32 297  39 297  C 40.68 297  42 298.32  42 300  C 42 301.68  40.68 303  39 303  " fill-rule="nonzero" fill="#797979" stroke="none" />
</svg>