<?xml version="1.0" encoding="utf-8"?>
<svg version="1.1" xmlns:xlink="http://www.w3.org/1999/xlink" width="12px" height="12px" viewBox="28 203  12 12" xmlns="http://www.w3.org/2000/svg">
  <path d="M 34 203  C 37.36 203  40 205.64  40 209  C 40 212.36  37.36 215  34 215  C 30.64 215  28 212.36  28 209  C 28 205.64  30.64 203  34 203  Z " fill-rule="nonzero" fill="#ffffff" stroke="none" />
  <path d="M 34 203.5  C 37.08 203.5  39.5 205.92  39.5 209  C 39.5 212.08  37.08 214.5  34 214.5  C 30.92 214.5  28.5 212.08  28.5 209  C 28.5 205.92  30.92 203.5  34 203.5  Z " stroke-width="1" stroke="#797979" fill="none" />
  <path d="M 34 212  C 32.32 212  31 210.68  31 209  C 31 207.32  32.32 206  34 206  C 35.68 206  37 207.32  37 209  C 37 210.68  35.68 212  34 212  " fill-rule="nonzero" fill="#797979" stroke="none" />
</svg>