<?xml version="1.0" encoding="utf-8"?>
<svg version="1.1" xmlns:xlink="http://www.w3.org/1999/xlink" width="12px" height="12px" viewBox="28 171  12 12" xmlns="http://www.w3.org/2000/svg">
  <path d="M 34 171  C 37.36 171  40 173.64  40 177  C 40 180.36  37.36 183  34 183  C 30.64 183  28 180.36  28 177  C 28 173.64  30.64 171  34 171  Z " fill-rule="nonzero" fill="#ffffff" stroke="none" />
  <path d="M 34 171.5  C 37.08 171.5  39.5 173.92  39.5 177  C 39.5 180.08  37.08 182.5  34 182.5  C 30.92 182.5  28.5 180.08  28.5 177  C 28.5 173.92  30.92 171.5  34 171.5  Z " stroke-width="1" stroke="#797979" fill="none" />
  <path d="M 34 180  C 32.32 180  31 178.68  31 177  C 31 175.32  32.32 174  34 174  C 35.68 174  37 175.32  37 177  C 37 178.68  35.68 180  34 180  " fill-rule="nonzero" fill="#797979" stroke="none" />
</svg>