<?xml version="1.0" encoding="utf-8"?>
<svg version="1.1" xmlns:xlink="http://www.w3.org/1999/xlink" width="12px" height="12px" viewBox="28 248  12 12" xmlns="http://www.w3.org/2000/svg">
  <path d="M 34 248  C 37.36 248  40 250.64  40 254  C 40 257.36  37.36 260  34 260  C 30.64 260  28 257.36  28 254  C 28 250.64  30.64 248  34 248  Z " fill-rule="nonzero" fill="#f0f0f0" stroke="none" />
  <path d="M 34 248.5  C 37.08 248.5  39.5 250.92  39.5 254  C 39.5 257.08  37.08 259.5  34 259.5  C 30.92 259.5  28.5 257.08  28.5 254  C 28.5 250.92  30.92 248.5  34 248.5  Z " stroke-width="1" stroke="#797979" fill="none" />
  <path d="M 34 257  C 32.32 257  31 255.68  31 254  C 31 252.32  32.32 251  34 251  C 35.68 251  37 252.32  37 254  C 37 255.68  35.68 257  34 257  " fill-rule="nonzero" fill="#797979" stroke="none" />
</svg>