<?xml version="1.0" encoding="utf-8"?>
<svg version="1.1" xmlns:xlink="http://www.w3.org/1999/xlink" width="12px" height="12px" viewBox="33 204  12 12" xmlns="http://www.w3.org/2000/svg">
  <path d="M 39 204  C 42.36 204  45 206.64  45 210  C 45 213.36  42.36 216  39 216  C 35.64 216  33 213.36  33 210  C 33 206.64  35.64 204  39 204  Z " fill-rule="nonzero" fill="#ffffff" stroke="none" />
  <path d="M 39 204.5  C 42.08 204.5  44.5 206.92  44.5 210  C 44.5 213.08  42.08 215.5  39 215.5  C 35.92 215.5  33.5 213.08  33.5 210  C 33.5 206.92  35.92 204.5  39 204.5  Z " stroke-width="1" stroke="#797979" fill="none" />
  <path d="M 39 213  C 37.32 213  36 211.68  36 210  C 36 208.32  37.32 207  39 207  C 40.68 207  42 208.32  42 210  C 42 211.68  40.68 213  39 213  " fill-rule="nonzero" fill="#797979" stroke="none" />
</svg>