<?xml version="1.0" encoding="utf-8"?>
<svg version="1.1" xmlns:xlink="http://www.w3.org/1999/xlink" width="12px" height="12px" viewBox="28 332  12 12" xmlns="http://www.w3.org/2000/svg">
  <path d="M 34 332  C 37.36 332  40 334.64  40 338  C 40 341.36  37.36 344  34 344  C 30.64 344  28 341.36  28 338  C 28 334.64  30.64 332  34 332  Z " fill-rule="nonzero" fill="#f0f0f0" stroke="none" />
  <path d="M 34 332.5  C 37.08 332.5  39.5 334.92  39.5 338  C 39.5 341.08  37.08 343.5  34 343.5  C 30.92 343.5  28.5 341.08  28.5 338  C 28.5 334.92  30.92 332.5  34 332.5  Z " stroke-width="1" stroke="#797979" fill="none" />
  <path d="M 34 341  C 32.32 341  31 339.68  31 338  C 31 336.32  32.32 335  34 335  C 35.68 335  37 336.32  37 338  C 37 339.68  35.68 341  34 341  " fill-rule="nonzero" fill="#797979" stroke="none" />
</svg>